# xmcd
#
# Track frame offsets: 
#        150
#        17958
#        38655
#        61099
#        79829
#        95317
#        112214
#        138269
#        157993
#        181858
#        203438
#        232081
#        255916
#        272646
#        293895
#
# Disc length: 4285 seconds
#
# Revision: 2
# Processed by: cddbd v1.5.1PL2 Copyright (c) Steve Scherf et al.
# Submitted via: ExactAudioCopy v0.95b3
#
DISCID=c210bb0f
DTITLE=Various Artist - Pro Jazz vol.2 [CD1)
DYEAR=2005
DGENRE=Jazz
TTITLE0=Nicola Conte - Sea And Sand
TTITLE1=Cassandra Wilson - Fragile
TTITLE2=Gabin - La Maison feat. Stefano Di Batista
TTITLE3=Medeski, Martin and Wood - Mami Gato
TTITLE4=Lemonada - Nayma
TTITLE5=Molly Johnson - Melody
TTITLE6=Erik Fruffaz - Big Wheel feat. NYA
TTITLE7=Troublemakers - Race Records feat. The Gift Of Gab From Blacka
TTITLE7=licious
TTITLE8=Soulive - One In Seven
TTITLE9=Slowhill - Just A Phrase
TTITLE10=Stefon Harris and Blackout - Until
TTITLE11=Takashi Matsunaga - Peace
TTITLE12=Joe Lovano - Don't Ever Leave Me
TTITLE13=Gramt Green - A Time To Remember (osunlade mix)
TTITLE14=Marc Moulin - Marc Moulin 0 Silver (Who Stole The Groove?)
EXTD=YEAR: 2005
EXTT0=
EXTT1=
EXTT2=
EXTT3=
EXTT4=
EXTT5=
EXTT6=
EXTT7=
EXTT8=
EXTT9=
EXTT10=
EXTT11=
EXTT12=
EXTT13=
EXTT14=
PLAYORDER=
